<svg width="116" height="26" viewBox="0 0 116 26" fill="none" xmlns="http://www.w3.org/2000/svg">
<path d="M17.83 7.5L15.56 5.23C15.63 4.81 15.74 4.42 15.88 4.08C15.96 3.9 16 3.71 16 3.5C16 2.67 15.33 2 14.5 2C12.86 2 11.41 2.79 10.5 4H5.5C2.46 4 0 6.46 0 9.5C0 12.54 2.5 21 2.5 21H8V19H10V21H15.5L17.18 15.41L20 14.47V7.5H17.83ZM11 9H6V7H11V9ZM14 11C13.45 11 13 10.55 13 10C13 9.45 13.45 9 14 9C14.55 9 15 9.45 15 10C15 10.55 14.55 11 14 11Z" fill="#E3E3E3"/>
<path d="M30.952 12.192C29.7947 12.192 28.7707 11.944 27.88 11.448C26.9947 10.952 26.3013 10.2533 25.8 9.352C25.2987 8.45067 25.048 7.4 25.048 6.2C25.048 5.32 25.192 4.512 25.48 3.776C25.7733 3.04 26.184 2.40267 26.712 1.864C27.24 1.32 27.8613 0.901333 28.576 0.608C29.296 0.309333 30.088 0.16 30.952 0.16C31.4 0.16 31.8587 0.205333 32.328 0.296C32.8027 0.381333 33.2853 0.517333 33.776 0.704L33.32 1.864C32.8507 1.71467 32.4293 1.61067 32.056 1.552C31.688 1.488 31.32 1.456 30.952 1.456C30.376 1.456 29.84 1.56533 29.344 1.784C28.8533 1.99733 28.424 2.30933 28.056 2.72C27.6933 3.12533 27.408 3.62133 27.2 4.208C26.9973 4.78933 26.896 5.45333 26.896 6.2C26.896 6.87733 26.9973 7.504 27.2 8.08C27.408 8.65067 27.6933 9.14667 28.056 9.568C28.424 9.98933 28.8533 10.3173 29.344 10.552C29.84 10.7867 30.376 10.904 30.952 10.904C31.32 10.904 31.6987 10.8587 32.088 10.768C32.4773 10.672 32.8853 10.5173 33.312 10.304L33.776 11.456C33.2853 11.712 32.8027 11.8987 32.328 12.016C31.8587 12.1333 31.4 12.192 30.952 12.192ZM56.8467 12V6.024C56.8467 5.68267 56.7694 5.40267 56.6147 5.184C56.4654 4.96533 56.228 4.856 55.9027 4.856C55.7854 4.856 55.6707 4.86933 55.5587 4.896C55.452 4.92267 55.3267 4.94933 55.1827 4.976C54.8894 5.02933 54.6174 5.00267 54.3667 4.896C54.116 4.784 53.8894 4.60533 53.6867 4.36C54.2627 4.05067 54.7507 3.84 55.1507 3.728C55.556 3.61067 55.916 3.552 56.2307 3.552C56.636 3.552 57.0174 3.63467 57.3747 3.8C57.732 3.96533 58.02 4.23467 58.2387 4.608C58.4574 4.98133 58.5667 5.488 58.5667 6.128V12H56.8467ZM46.5827 12V5.744C46.5827 5.44533 46.564 5.128 46.5267 4.792C46.4947 4.456 46.4334 4.10133 46.3427 3.728H47.6867C47.9427 4.016 48.1107 4.30133 48.1907 4.584C48.2707 4.86667 48.3107 5.168 48.3107 5.488V12H46.5827ZM51.7187 12V6.024C51.7187 5.68267 51.6494 5.40267 51.5107 5.184C51.372 4.96533 51.1534 4.856 50.8547 4.856C50.732 4.856 50.6227 4.86667 50.5267 4.888C50.4307 4.90933 50.316 4.93333 50.1827 4.96C49.884 5.01333 49.6147 4.98667 49.3747 4.88C49.14 4.768 48.9214 4.58933 48.7187 4.344C49.2894 4.03467 49.7667 3.82667 50.1507 3.72C50.5347 3.608 50.8814 3.552 51.1907 3.552C51.596 3.552 51.9694 3.63467 52.3107 3.8C52.652 3.96533 52.9267 4.23467 53.1347 4.608C53.3427 4.98133 53.4467 5.488 53.4467 6.128V12H51.7187ZM61.1616 15.856V6.264C61.1616 5.72 61.1376 5.23733 61.0896 4.816C61.0416 4.39467 60.9829 4.032 60.9136 3.728H62.1616C62.3002 3.82933 62.4122 3.94667 62.4976 4.08C62.5829 4.208 62.6602 4.37333 62.7296 4.576L62.7616 4.856L62.9216 4.552C63.2842 4.17867 63.6656 3.92 64.0656 3.776C64.4656 3.62667 64.8336 3.552 65.1696 3.552C65.9216 3.552 66.5616 3.744 67.0896 4.128C67.6176 4.50667 68.0202 5.02667 68.2976 5.688C68.5749 6.344 68.7136 7.08533 68.7136 7.912C68.7136 8.53067 68.6122 9.096 68.4096 9.608C68.2122 10.12 67.9402 10.5627 67.5936 10.936C67.2469 11.3093 66.8549 11.6 66.4176 11.808C65.9856 12.0107 65.5322 12.112 65.0576 12.112C64.8069 12.112 64.5482 12.0907 64.2816 12.048C64.0149 12.0107 63.7189 11.9387 63.3936 11.832C63.5429 11.5387 63.7322 11.3013 63.9616 11.12C64.1909 10.9333 64.4736 10.84 64.8096 10.84C65.1989 10.8453 65.5536 10.7413 65.8736 10.528C66.1936 10.3093 66.4469 9.984 66.6336 9.552C66.8202 9.11467 66.9136 8.568 66.9136 7.912C66.9136 7.32533 66.8336 6.8 66.6736 6.336C66.5189 5.872 66.2896 5.50667 65.9856 5.24C65.6816 4.97333 65.3109 4.84 64.8736 4.84C64.5269 4.84 64.1829 4.93333 63.8416 5.12C63.5056 5.30667 63.1722 5.6 62.8416 6V15.856H61.1616ZM72.8254 12.176C72.2814 12.176 71.8121 12.072 71.4174 11.864C71.0228 11.656 70.7188 11.3787 70.5054 11.032C70.2974 10.68 70.1934 10.2907 70.1934 9.864C70.1934 9.352 70.3321 8.91467 70.6094 8.552C70.8868 8.184 71.3454 7.88267 71.9854 7.648C72.6308 7.41333 73.5054 7.23733 74.6094 7.12C74.5828 7.28 74.5321 7.45333 74.4574 7.64C74.3828 7.82667 74.2654 7.99467 74.1054 8.144C73.9508 8.288 73.7401 8.38133 73.4734 8.424C73.0628 8.488 72.7454 8.58667 72.5214 8.72C72.2974 8.85333 72.1428 9.008 72.0574 9.184C71.9721 9.36 71.9294 9.544 71.9294 9.736C71.9294 10.0453 72.0414 10.3147 72.2654 10.544C72.4894 10.7733 72.7854 10.888 73.1534 10.888C73.5001 10.888 73.8494 10.7947 74.2014 10.608C74.5588 10.416 74.8868 10.128 75.1854 9.744V6.904C75.1854 6.296 75.0308 5.80267 74.7214 5.424C74.4174 5.04 73.9241 4.848 73.2414 4.848C72.9588 4.848 72.6734 4.87733 72.3854 4.936C72.0974 4.99467 71.7614 5.09333 71.3774 5.232L70.9614 4.128C71.4734 3.904 71.9428 3.75467 72.3694 3.68C72.7961 3.6 73.1908 3.56 73.5534 3.56C74.6041 3.56 75.4174 3.85867 75.9934 4.456C76.5748 5.05333 76.8654 5.89867 76.8654 6.992V9.464C76.8654 10.008 76.8894 10.4907 76.9374 10.912C76.9854 11.328 77.0468 11.6907 77.1214 12H75.8814C75.7374 11.9147 75.6201 11.8 75.5294 11.656C75.4441 11.5067 75.3694 11.352 75.3054 11.192L75.2814 10.888L75.0974 11.176C74.6708 11.592 74.2814 11.864 73.9294 11.992C73.5828 12.1147 73.2148 12.176 72.8254 12.176ZM79.2854 12V6.312C79.2854 5.87467 79.2641 5.42933 79.2214 4.976C79.1841 4.51733 79.1201 4.10133 79.0294 3.728H80.2934C80.4428 3.87733 80.5574 4.05867 80.6374 4.272C80.7174 4.48533 80.7788 4.72267 80.8214 4.984L80.8294 5.296L80.9654 4.984C81.1788 4.568 81.4721 4.23467 81.8454 3.984C82.2241 3.728 82.6188 3.6 83.0294 3.6C83.1628 3.6 83.2988 3.61333 83.4374 3.64C83.5761 3.66133 83.7228 3.69867 83.8774 3.752L83.6694 5.152C83.4934 5.104 83.3388 5.072 83.2054 5.056C83.0774 5.04 82.9601 5.032 82.8534 5.032C82.5121 5.032 82.1921 5.13067 81.8934 5.328C81.5948 5.52533 81.3521 5.824 81.1654 6.224C80.9788 6.624 80.8854 7.128 80.8854 7.736V12H79.2854ZM87.5754 12.176C87.0314 12.176 86.5621 12.072 86.1674 11.864C85.7728 11.656 85.4688 11.3787 85.2554 11.032C85.0474 10.68 84.9434 10.2907 84.9434 9.864C84.9434 9.352 85.0821 8.91467 85.3594 8.552C85.6368 8.184 86.0954 7.88267 86.7354 7.648C87.3808 7.41333 88.2554 7.23733 89.3594 7.12C89.3328 7.28 89.2821 7.45333 89.2074 7.64C89.1328 7.82667 89.0154 7.99467 88.8554 8.144C88.7008 8.288 88.4901 8.38133 88.2234 8.424C87.8128 8.488 87.4954 8.58667 87.2714 8.72C87.0474 8.85333 86.8928 9.008 86.8074 9.184C86.7221 9.36 86.6794 9.544 86.6794 9.736C86.6794 10.0453 86.7914 10.3147 87.0154 10.544C87.2394 10.7733 87.5354 10.888 87.9034 10.888C88.2501 10.888 88.5994 10.7947 88.9514 10.608C89.3088 10.416 89.6368 10.128 89.9354 9.744V6.904C89.9354 6.296 89.7808 5.80267 89.4714 5.424C89.1674 5.04 88.6741 4.848 87.9914 4.848C87.7088 4.848 87.4234 4.87733 87.1354 4.936C86.8474 4.99467 86.5114 5.09333 86.1274 5.232L85.7114 4.128C86.2234 3.904 86.6928 3.75467 87.1194 3.68C87.5461 3.6 87.9408 3.56 88.3034 3.56C89.3541 3.56 90.1674 3.85867 90.7434 4.456C91.3248 5.05333 91.6154 5.89867 91.6154 6.992V9.464C91.6154 10.008 91.6394 10.4907 91.6874 10.912C91.7354 11.328 91.7968 11.6907 91.8714 12H90.6314C90.4874 11.9147 90.3701 11.8 90.2794 11.656C90.1941 11.5067 90.1194 11.352 90.0554 11.192L90.0314 10.888L89.8474 11.176C89.4208 11.592 89.0314 11.864 88.6794 11.992C88.3328 12.1147 87.9648 12.176 87.5754 12.176ZM101.265 12V7L97.2728 0.367999H99.2168L102.953 6.6V12H101.265ZM103.409 5.976C103.281 5.81067 103.161 5.60533 103.049 5.36C102.937 5.10933 102.87 4.84533 102.849 4.568C102.833 4.28533 102.902 4.00533 103.057 3.728L104.929 0.367999H106.825L103.409 5.976ZM110.919 12.176C110.375 12.176 109.906 12.072 109.511 11.864C109.117 11.656 108.813 11.3787 108.599 11.032C108.391 10.68 108.287 10.2907 108.287 9.864C108.287 9.352 108.426 8.91467 108.703 8.552C108.981 8.184 109.439 7.88267 110.079 7.648C110.725 7.41333 111.599 7.23733 112.703 7.12C112.677 7.28 112.626 7.45333 112.551 7.64C112.477 7.82667 112.359 7.99467 112.199 8.144C112.045 8.288 111.834 8.38133 111.567 8.424C111.157 8.488 110.839 8.58667 110.615 8.72C110.391 8.85333 110.237 9.008 110.151 9.184C110.066 9.36 110.023 9.544 110.023 9.736C110.023 10.0453 110.135 10.3147 110.359 10.544C110.583 10.7733 110.879 10.888 111.247 10.888C111.594 10.888 111.943 10.7947 112.295 10.608C112.653 10.416 112.981 10.128 113.279 9.744V6.904C113.279 6.296 113.125 5.80267 112.815 5.424C112.511 5.04 112.018 4.848 111.335 4.848C111.053 4.848 110.767 4.87733 110.479 4.936C110.191 4.99467 109.855 5.09333 109.471 5.232L109.055 4.128C109.567 3.904 110.037 3.75467 110.463 3.68C110.89 3.6 111.285 3.56 111.647 3.56C112.698 3.56 113.511 3.85867 114.087 4.456C114.669 5.05333 114.959 5.89867 114.959 6.992V9.464C114.959 10.008 114.983 10.4907 115.031 10.912C115.079 11.328 115.141 11.6907 115.215 12H113.975C113.831 11.9147 113.714 11.8 113.623 11.656C113.538 11.5067 113.463 11.352 113.399 11.192L113.375 10.888L113.191 11.176C112.765 11.592 112.375 11.864 112.023 11.992C111.677 12.1147 111.309 12.176 110.919 12.176Z" fill="#E3E3E3"/>
<path d="M27.1948 23V17.105H25.2868V16.457H29.9758V17.105H28.0588V23H27.1948ZM32.0363 23.09C31.7993 23.09 31.5818 23.0465 31.3838 22.9595C31.1858 22.8725 31.0268 22.724 30.9068 22.514C30.7898 22.304 30.7313 22.013 30.7313 21.641V18.347H31.5773V21.731C31.5773 21.938 31.6208 22.109 31.7078 22.244C31.7978 22.376 31.9373 22.442 32.1263 22.442C32.1983 22.442 32.2598 22.4345 32.3108 22.4195C32.3648 22.4045 32.4323 22.388 32.5133 22.37C32.6903 22.328 32.8523 22.325 32.9993 22.361C33.1493 22.397 33.2873 22.481 33.4133 22.613C33.0953 22.802 32.8268 22.9295 32.6078 22.9955C32.3888 23.0585 32.1983 23.09 32.0363 23.09ZM34.0073 23C33.8633 22.838 33.7688 22.6775 33.7238 22.5185C33.6788 22.3595 33.6563 22.19 33.6563 22.01V18.347H34.4933V21.866C34.4933 22.031 34.5038 22.208 34.5248 22.397C34.5458 22.586 34.5833 22.787 34.6373 23H34.0073ZM40.233 23.09C39.831 23.09 39.465 22.997 39.135 22.811C38.808 22.625 38.547 22.352 38.352 21.992C38.16 21.632 38.064 21.191 38.064 20.669C38.064 20.15 38.163 19.712 38.361 19.355C38.562 18.995 38.8275 18.722 39.1575 18.536C39.4875 18.35 39.846 18.257 40.233 18.257C40.395 18.257 40.5735 18.272 40.7685 18.302C40.9635 18.329 41.151 18.377 41.331 18.446L41.124 19.031C40.953 18.986 40.7955 18.9545 40.6515 18.9365C40.5075 18.9155 40.368 18.905 40.233 18.905C40.005 18.905 39.7935 18.968 39.5985 19.094C39.4065 19.22 39.2505 19.4135 39.1305 19.6745C39.0135 19.9355 38.955 20.267 38.955 20.669C38.955 21.074 39.0135 21.407 39.1305 21.668C39.2475 21.929 39.402 22.124 39.594 22.253C39.789 22.379 40.002 22.442 40.233 22.442C40.365 22.442 40.5105 22.4225 40.6695 22.3835C40.8315 22.3415 41.016 22.274 41.223 22.181L41.448 22.775C41.205 22.895 40.977 22.9775 40.764 23.0225C40.551 23.0675 40.374 23.09 40.233 23.09ZM44.0559 23.09C43.6539 23.09 43.2879 22.997 42.9579 22.811C42.6309 22.625 42.3699 22.352 42.1749 21.992C41.9829 21.632 41.8869 21.191 41.8869 20.669C41.8869 20.258 41.9484 19.901 42.0714 19.598C42.1974 19.295 42.3639 19.0445 42.5709 18.8465C42.7809 18.6485 43.0149 18.5015 43.2729 18.4055C43.5309 18.3065 43.7919 18.257 44.0559 18.257C44.5149 18.257 44.9064 18.365 45.2304 18.581C45.5544 18.794 45.8004 19.0835 45.9684 19.4495C46.1394 19.8125 46.2249 20.219 46.2249 20.669C46.2249 21.059 46.1664 21.4055 46.0494 21.7085C45.9354 22.0085 45.7779 22.262 45.5769 22.469C45.3759 22.673 45.1449 22.8275 44.8839 22.9325C44.6229 23.0375 44.3469 23.09 44.0559 23.09ZM44.0559 22.442C44.3469 22.442 44.5869 22.361 44.7759 22.199C44.9649 22.037 45.1044 21.8225 45.1944 21.5555C45.2874 21.2855 45.3339 20.99 45.3339 20.669C45.3339 20.267 45.2739 19.9355 45.1539 19.6745C45.0369 19.4135 44.8809 19.22 44.6859 19.094C44.4939 18.968 44.2839 18.905 44.0559 18.905C43.8279 18.905 43.6164 18.968 43.4214 19.094C43.2294 19.22 43.0734 19.4135 42.9534 19.6745C42.8364 19.9355 42.7779 20.267 42.7779 20.669C42.7779 21.191 42.8889 21.617 43.1109 21.947C43.3329 22.277 43.6479 22.442 44.0559 22.442ZM53.1765 23V19.616C53.1765 19.409 53.13 19.2395 53.037 19.1075C52.947 18.9725 52.8075 18.905 52.6185 18.905C52.5465 18.905 52.479 18.9125 52.416 18.9275C52.356 18.9425 52.2855 18.959 52.2045 18.977C52.0305 19.016 51.8685 19.0175 51.7185 18.9815C51.5685 18.9455 51.4305 18.863 51.3045 18.734C51.6255 18.545 51.8985 18.419 52.1235 18.356C52.3515 18.29 52.5465 18.257 52.7085 18.257C52.9455 18.257 53.1645 18.3005 53.3655 18.3875C53.5695 18.4745 53.733 18.623 53.856 18.833C53.979 19.043 54.0405 19.334 54.0405 19.706V23H53.1765ZM47.3895 23V19.481C47.3895 19.313 47.379 19.1345 47.358 18.9455C47.34 18.7565 47.3055 18.557 47.2545 18.347H47.9025C48.0465 18.509 48.141 18.6695 48.186 18.8285C48.231 18.9875 48.2535 19.157 48.2535 19.337V23H47.3895ZM50.2875 23V19.616C50.2875 19.409 50.244 19.2395 50.157 19.1075C50.073 18.9725 49.9425 18.905 49.7655 18.905C49.6935 18.905 49.6305 18.911 49.5765 18.923C49.5225 18.935 49.4565 18.95 49.3785 18.968C49.2045 19.007 49.0455 19.0085 48.9015 18.9725C48.7575 18.9365 48.6225 18.854 48.4965 18.725C48.8175 18.536 49.0845 18.4115 49.2975 18.3515C49.5135 18.2885 49.7025 18.257 49.8645 18.257C50.0985 18.257 50.313 18.3005 50.508 18.3875C50.703 18.4745 50.859 18.623 50.976 18.833C51.093 19.043 51.1515 19.334 51.1515 19.706V23H50.2875ZM55.5466 25.169V19.886C55.5466 19.526 55.5316 19.2185 55.5016 18.9635C55.4716 18.7085 55.4386 18.503 55.4026 18.347H56.0056C56.0836 18.41 56.1451 18.476 56.1901 18.545C56.2381 18.614 56.2816 18.71 56.3206 18.833L56.3386 18.977L56.4106 18.815C56.5996 18.608 56.8141 18.464 57.0541 18.383C57.2941 18.299 57.5086 18.257 57.6976 18.257C58.1176 18.257 58.4746 18.365 58.7686 18.581C59.0626 18.794 59.2861 19.085 59.4391 19.454C59.5921 19.823 59.6686 20.237 59.6686 20.696C59.6686 21.056 59.6116 21.3815 59.4976 21.6725C59.3836 21.9605 59.2276 22.208 59.0296 22.415C58.8316 22.622 58.6081 22.781 58.3591 22.892C58.1101 23 57.8506 23.054 57.5806 23.054C57.4456 23.054 57.3016 23.042 57.1486 23.018C56.9986 22.997 56.8426 22.958 56.6806 22.901C56.7676 22.751 56.8786 22.6295 57.0136 22.5365C57.1486 22.4435 57.3196 22.4 57.5266 22.406C57.7336 22.412 57.9331 22.3565 58.1251 22.2395C58.3171 22.1225 58.4731 21.938 58.5931 21.686C58.7161 21.431 58.7776 21.101 58.7776 20.696C58.7776 20.348 58.7311 20.039 58.6381 19.769C58.5451 19.499 58.4071 19.2875 58.2241 19.1345C58.0441 18.9815 57.8206 18.905 57.5536 18.905C57.3526 18.905 57.1516 18.959 56.9506 19.067C56.7526 19.172 56.5606 19.337 56.3746 19.562V25.169H55.5466ZM60.9075 23V19.922C60.9075 19.646 60.8955 19.367 60.8715 19.085C60.8505 18.803 60.8145 18.557 60.7635 18.347H61.3845C61.4805 18.446 61.548 18.5555 61.587 18.6755C61.629 18.7925 61.6635 18.923 61.6905 19.067V19.229L61.7625 19.067C61.8795 18.836 62.0475 18.6485 62.2665 18.5045C62.4855 18.3575 62.7165 18.284 62.9595 18.284C63.0285 18.284 63.099 18.29 63.171 18.302C63.243 18.314 63.3195 18.332 63.4005 18.356L63.2925 19.058C63.1995 19.034 63.117 19.019 63.045 19.013C62.976 19.007 62.9145 19.004 62.8605 19.004C62.6745 19.004 62.493 19.055 62.316 19.157C62.139 19.259 61.9935 19.421 61.8795 19.643C61.7655 19.865 61.7085 20.156 61.7085 20.516V23H60.9075ZM65.5661 23.09C65.2541 23.09 64.9841 23.0345 64.7561 22.9235C64.5311 22.8095 64.3571 22.6565 64.2341 22.4645C64.1141 22.2725 64.0541 22.055 64.0541 21.812C64.0541 21.509 64.1336 21.2585 64.2926 21.0605C64.4516 20.8595 64.7126 20.6975 65.0756 20.5745C65.4416 20.4515 65.9321 20.354 66.5471 20.282C66.5351 20.354 66.5081 20.4395 66.4661 20.5385C66.4271 20.6375 66.3626 20.729 66.2726 20.813C66.1826 20.897 66.0581 20.951 65.8991 20.975C65.6351 21.017 65.4341 21.0785 65.2961 21.1595C65.1611 21.2405 65.0681 21.3335 65.0171 21.4385C64.9691 21.5405 64.9451 21.647 64.9451 21.758C64.9451 21.941 65.0111 22.1015 65.1431 22.2395C65.2751 22.3745 65.4551 22.442 65.6831 22.442C65.8871 22.442 66.0926 22.391 66.2996 22.289C66.5066 22.187 66.6971 22.022 66.8711 21.794V20.111C66.8711 19.754 66.7841 19.4645 66.6101 19.2425C66.4391 19.0175 66.1481 18.905 65.7371 18.905C65.5751 18.905 65.4146 18.9215 65.2556 18.9545C65.0966 18.9875 64.9091 19.043 64.6931 19.121L64.4861 18.563C64.7801 18.437 65.0396 18.3545 65.2646 18.3155C65.4896 18.2765 65.7011 18.257 65.8991 18.257C66.4751 18.257 66.9221 18.425 67.2401 18.761C67.5581 19.094 67.7171 19.565 67.7171 20.174V21.461C67.7171 21.821 67.7306 22.1285 67.7576 22.3835C67.7876 22.6355 67.8221 22.841 67.8611 23H67.2491C67.1651 22.949 67.0991 22.883 67.0511 22.802C67.0031 22.721 66.9611 22.634 66.9251 22.541L66.9161 22.379L66.8171 22.541C66.5891 22.769 66.3776 22.9175 66.1826 22.9865C65.9876 23.0555 65.7821 23.09 65.5661 23.09ZM71.4178 23V18.347H72.2818V23H71.4178ZM71.8498 17.537C71.6968 17.537 71.5678 17.486 71.4628 17.384C71.3608 17.279 71.3098 17.15 71.3098 16.997C71.3098 16.838 71.3608 16.7075 71.4628 16.6055C71.5678 16.5005 71.6968 16.448 71.8498 16.448C72.0088 16.448 72.1378 16.5005 72.2368 16.6055C72.3388 16.7075 72.3898 16.838 72.3898 16.997C72.3898 17.15 72.3388 17.279 72.2368 17.384C72.1378 17.486 72.0088 17.537 71.8498 17.537ZM76.7175 23V19.616C76.7175 19.409 76.671 19.2395 76.578 19.1075C76.485 18.9725 76.3455 18.905 76.1595 18.905C76.0875 18.905 76.0245 18.9125 75.9705 18.9275C75.9165 18.9425 75.8505 18.959 75.7725 18.977C75.5985 19.016 75.4365 19.0175 75.2865 18.9815C75.1365 18.9455 74.9985 18.863 74.8725 18.734C75.1935 18.545 75.4605 18.419 75.6735 18.356C75.8895 18.29 76.0785 18.257 76.2405 18.257C76.4805 18.257 76.7025 18.3005 76.9065 18.3875C77.1105 18.4745 77.274 18.623 77.397 18.833C77.52 19.043 77.5815 19.334 77.5815 19.706V23H76.7175ZM73.7655 23V19.481C73.7655 19.313 73.755 19.1345 73.734 18.9455C73.716 18.7565 73.6815 18.557 73.6305 18.347H74.2785C74.4225 18.509 74.517 18.6695 74.562 18.8285C74.607 18.9875 74.6295 19.157 74.6295 19.337V23H73.7655ZM80.8008 23.099C80.3118 23.099 79.9353 22.9385 79.6713 22.6175C79.4103 22.2965 79.2798 21.851 79.2798 21.281V18.968H78.4518V18.563L79.2798 18.347V17.159L80.0718 16.907V21.38C80.0718 21.689 80.1378 21.9485 80.2698 22.1585C80.4048 22.3655 80.5818 22.469 80.8008 22.469C80.9178 22.469 81.0303 22.4585 81.1383 22.4375C81.2493 22.4165 81.3828 22.382 81.5388 22.334L81.7368 22.901C81.5088 22.976 81.3318 23.027 81.2058 23.054C81.0798 23.084 80.9448 23.099 80.8008 23.099ZM81.1518 18.968C81.0108 18.968 80.8908 18.941 80.7918 18.887C80.6958 18.83 80.6148 18.755 80.5488 18.662C80.4858 18.566 80.4348 18.461 80.3958 18.347H81.6648V18.968H81.1518ZM84.8758 23.09C84.5458 23.09 84.2458 23.0285 83.9758 22.9055C83.7088 22.7825 83.4793 22.6115 83.2873 22.3925C83.0983 22.1705 82.9528 21.911 82.8508 21.614C82.7488 21.314 82.6978 20.987 82.6978 20.633C82.6978 20.147 82.7863 19.727 82.9633 19.373C83.1433 19.016 83.3983 18.7415 83.7283 18.5495C84.0583 18.3545 84.4498 18.257 84.9028 18.257C85.2118 18.257 85.4848 18.326 85.7218 18.464C85.9588 18.599 86.1493 18.785 86.2933 19.022C86.4403 19.256 86.5303 19.523 86.5633 19.823C86.5993 20.12 86.5678 20.429 86.4688 20.75H83.8588C83.9218 20.579 84.0103 20.4365 84.1243 20.3225C84.2413 20.2055 84.4078 20.147 84.6238 20.147H85.7668C85.7938 19.916 85.7668 19.7075 85.6858 19.5215C85.6078 19.3325 85.4908 19.1825 85.3348 19.0715C85.1818 18.9605 85.0078 18.905 84.8128 18.905C84.5608 18.905 84.3388 18.9725 84.1468 19.1075C83.9548 19.2425 83.8048 19.4405 83.6968 19.7015C83.5888 19.9595 83.5348 20.273 83.5348 20.642C83.5348 20.999 83.5963 21.3125 83.7193 21.5825C83.8453 21.8525 84.0163 22.064 84.2323 22.217C84.4483 22.367 84.6928 22.442 84.9658 22.442C85.1728 22.442 85.3693 22.421 85.5553 22.379C85.7413 22.334 85.9618 22.247 86.2168 22.118L86.4418 22.712C86.1538 22.859 85.8748 22.958 85.6048 23.009C85.3348 23.063 85.0918 23.09 84.8758 23.09ZM87.8544 23V16.178H88.6734V23H87.8544ZM90.0945 23V18.347H90.9585V23H90.0945ZM90.5265 17.537C90.3735 17.537 90.2445 17.486 90.1395 17.384C90.0375 17.279 89.9865 17.15 89.9865 16.997C89.9865 16.838 90.0375 16.7075 90.1395 16.6055C90.2445 16.5005 90.3735 16.448 90.5265 16.448C90.6855 16.448 90.8145 16.5005 90.9135 16.6055C91.0155 16.7075 91.0665 16.838 91.0665 16.997C91.0665 17.15 91.0155 17.279 90.9135 17.384C90.8145 17.486 90.6855 17.537 90.5265 17.537ZM94.0082 25.25C93.7742 25.25 93.5177 25.2245 93.2387 25.1735C92.9627 25.1255 92.6762 25.025 92.3792 24.872L92.6132 24.26C92.8712 24.386 93.1082 24.4745 93.3242 24.5255C93.5432 24.5765 93.7472 24.602 93.9362 24.602C94.1882 24.602 94.4192 24.548 94.6292 24.44C94.8392 24.332 95.0072 24.167 95.1332 23.945C95.2592 23.723 95.3222 23.441 95.3222 23.099V19.004C95.1842 18.968 95.0537 18.9425 94.9307 18.9275C94.8107 18.9125 94.6832 18.905 94.5482 18.905C94.0982 18.905 93.7352 19.0595 93.4592 19.3685C93.1832 19.6775 93.0452 20.12 93.0452 20.696C93.0452 21.035 93.0902 21.338 93.1802 21.605C93.2732 21.869 93.4112 22.073 93.5942 22.217C93.7802 22.361 94.0112 22.418 94.2872 22.388C94.4192 22.373 94.5467 22.391 94.6697 22.442C94.7927 22.493 94.9082 22.586 95.0162 22.721C94.8692 22.82 94.7162 22.8965 94.5572 22.9505C94.3982 23.0045 94.2512 23.039 94.1162 23.054C93.8492 23.075 93.5972 23.0345 93.3602 22.9325C93.1262 22.8275 92.9192 22.67 92.7392 22.46C92.5592 22.25 92.4182 21.995 92.3162 21.695C92.2142 21.395 92.1632 21.062 92.1632 20.696C92.1632 20.207 92.2652 19.7795 92.4692 19.4135C92.6732 19.0475 92.9537 18.764 93.3107 18.563C93.6707 18.359 94.0832 18.257 94.5482 18.257C94.7162 18.257 94.8827 18.2675 95.0477 18.2885C95.2127 18.3065 95.3837 18.3365 95.5607 18.3785C95.7407 18.4205 95.9342 18.476 96.1412 18.545V23C96.1412 23.447 96.0542 23.8385 95.8802 24.1745C95.7092 24.5135 95.4632 24.7775 95.1422 24.9665C94.8242 25.1555 94.4462 25.25 94.0082 25.25ZM99.5008 23.09C99.1708 23.09 98.8708 23.0285 98.6008 22.9055C98.3338 22.7825 98.1043 22.6115 97.9123 22.3925C97.7233 22.1705 97.5778 21.911 97.4758 21.614C97.3738 21.314 97.3228 20.987 97.3228 20.633C97.3228 20.147 97.4113 19.727 97.5883 19.373C97.7683 19.016 98.0233 18.7415 98.3533 18.5495C98.6833 18.3545 99.0748 18.257 99.5278 18.257C99.8368 18.257 100.11 18.326 100.347 18.464C100.584 18.599 100.774 18.785 100.918 19.022C101.065 19.256 101.155 19.523 101.188 19.823C101.224 20.12 101.193 20.429 101.094 20.75H98.4838C98.5468 20.579 98.6353 20.4365 98.7493 20.3225C98.8663 20.2055 99.0328 20.147 99.2488 20.147H100.392C100.419 19.916 100.392 19.7075 100.311 19.5215C100.233 19.3325 100.116 19.1825 99.9598 19.0715C99.8068 18.9605 99.6328 18.905 99.4378 18.905C99.1858 18.905 98.9638 18.9725 98.7718 19.1075C98.5798 19.2425 98.4298 19.4405 98.3218 19.7015C98.2138 19.9595 98.1598 20.273 98.1598 20.642C98.1598 20.999 98.2213 21.3125 98.3443 21.5825C98.4703 21.8525 98.6413 22.064 98.8573 22.217C99.0733 22.367 99.3178 22.442 99.5908 22.442C99.7978 22.442 99.9943 22.421 100.18 22.379C100.366 22.334 100.587 22.247 100.842 22.118L101.067 22.712C100.779 22.859 100.5 22.958 100.23 23.009C99.9598 23.063 99.7168 23.09 99.5008 23.09ZM105.431 23V19.616C105.431 19.409 105.385 19.2395 105.292 19.1075C105.199 18.9725 105.059 18.905 104.873 18.905C104.801 18.905 104.738 18.9125 104.684 18.9275C104.63 18.9425 104.564 18.959 104.486 18.977C104.312 19.016 104.15 19.0175 104 18.9815C103.85 18.9455 103.712 18.863 103.586 18.734C103.907 18.545 104.174 18.419 104.387 18.356C104.603 18.29 104.792 18.257 104.954 18.257C105.194 18.257 105.416 18.3005 105.62 18.3875C105.824 18.4745 105.988 18.623 106.111 18.833C106.234 19.043 106.295 19.334 106.295 19.706V23H105.431ZM102.479 23V19.481C102.479 19.313 102.469 19.1345 102.448 18.9455C102.43 18.7565 102.395 18.557 102.344 18.347H102.992C103.136 18.509 103.231 18.6695 103.276 18.8285C103.321 18.9875 103.343 19.157 103.343 19.337V23H102.479ZM109.515 23.099C109.026 23.099 108.649 22.9385 108.385 22.6175C108.124 22.2965 107.994 21.851 107.994 21.281V18.968H107.166V18.563L107.994 18.347V17.159L108.786 16.907V21.38C108.786 21.689 108.852 21.9485 108.984 22.1585C109.119 22.3655 109.296 22.469 109.515 22.469C109.632 22.469 109.744 22.4585 109.852 22.4375C109.963 22.4165 110.097 22.382 110.253 22.334L110.451 22.901C110.223 22.976 110.046 23.027 109.92 23.054C109.794 23.084 109.659 23.099 109.515 23.099ZM109.866 18.968C109.725 18.968 109.605 18.941 109.506 18.887C109.41 18.83 109.329 18.755 109.263 18.662C109.2 18.566 109.149 18.461 109.11 18.347H110.379V18.968H109.866ZM113.59 23.09C113.26 23.09 112.96 23.0285 112.69 22.9055C112.423 22.7825 112.193 22.6115 112.001 22.3925C111.812 22.1705 111.667 21.911 111.565 21.614C111.463 21.314 111.412 20.987 111.412 20.633C111.412 20.147 111.5 19.727 111.677 19.373C111.857 19.016 112.112 18.7415 112.442 18.5495C112.772 18.3545 113.164 18.257 113.617 18.257C113.926 18.257 114.199 18.326 114.436 18.464C114.673 18.599 114.863 18.785 115.007 19.022C115.154 19.256 115.244 19.523 115.277 19.823C115.313 20.12 115.282 20.429 115.183 20.75H112.573C112.636 20.579 112.724 20.4365 112.838 20.3225C112.955 20.2055 113.122 20.147 113.338 20.147H114.481C114.508 19.916 114.481 19.7075 114.4 19.5215C114.322 19.3325 114.205 19.1825 114.049 19.0715C113.896 18.9605 113.722 18.905 113.527 18.905C113.275 18.905 113.053 18.9725 112.861 19.1075C112.669 19.2425 112.519 19.4405 112.411 19.7015C112.303 19.9595 112.249 20.273 112.249 20.642C112.249 20.999 112.31 21.3125 112.433 21.5825C112.559 21.8525 112.73 22.064 112.946 22.217C113.162 22.367 113.407 22.442 113.68 22.442C113.887 22.442 114.083 22.421 114.269 22.379C114.455 22.334 114.676 22.247 114.931 22.118L115.156 22.712C114.868 22.859 114.589 22.958 114.319 23.009C114.049 23.063 113.806 23.09 113.59 23.09Z" fill="#E3E3E3"/>
<path d="M44.291 11.1761H43.7038L43.4957 10.9754C44.2241 10.1281 44.6627 9.02802 44.6627 7.83133C44.6627 5.16295 42.4997 3 39.8313 3C37.163 3 35 5.16295 35 7.83133C35 10.4997 37.163 12.6627 39.8313 12.6627C41.028 12.6627 42.1281 12.2241 42.9754 11.4957L43.1761 11.7038V12.291L46.8925 16L48 14.8925L44.291 11.1761ZM39.8313 11.1761C37.9806 11.1761 36.4866 9.6821 36.4866 7.83133C36.4866 5.98056 37.9806 4.48656 39.8313 4.48656C41.6821 4.48656 43.1761 5.98056 43.1761 7.83133C43.1761 9.6821 41.6821 11.1761 39.8313 11.1761Z" fill="#E3E3E3"/>
</svg>
