<svg preserveAspectRatio="none"  width="24"  height="24"  viewBox="0 0 24 24" xmlns="http://www.w3.org/2000/svg">
  <path d="M11.290993537964457 4.3116666666666665C11.290993537964457 4.3116666666666665 13.8125 4.3116666666666665 13.8125 4.3116666666666665 13.8125 4.3116666666666665 13.8125 0.18416666666666667 13.8125 0.18416666666666667 13.377372778675282 0.12999999999999998 11.88232027463651 0 10.130654281098545 0 6.504594103392568 0 4.016558966074314 2.1558333333333333 4.016558966074314 6.109999999999999 4.016558966074314 6.109999999999999 4.016558966074314 9.75 4.016558966074314 9.75 4.016558966074314 9.75 0 9.75 0 9.75 0 9.75 0 14.375833333333333 0 14.375833333333333 0 14.375833333333333 4.016558966074314 14.375833333333333 4.016558966074314 14.375833333333333 4.016558966074314 14.375833333333333 4.016558966074314 26 4.016558966074314 26 4.016558966074314 26 8.925686591276252 26 8.925686591276252 26 8.925686591276252 26 8.925686591276252 14.375833333333333 8.925686591276252 14.375833333333333 8.925686591276252 14.375833333333333 12.774888933764135 14.375833333333333 12.774888933764135 14.375833333333333 12.774888933764135 14.375833333333333 13.388529886914377 9.75 13.388529886914377 9.75 13.388529886914377 9.75 8.925686591276252 9.75 8.925686591276252 9.75 8.925686591276252 9.75 8.925686591276252 6.5649999999999995 8.925686591276252 6.5649999999999995 8.925686591276252 5.2325 9.305028271405492 4.3116666666666665 11.290993537964457 4.3116666666666665 11.290993537964457 4.3116666666666665 11.290993537964457 4.3116666666666665 11.290993537964457 4.3116666666666665" stroke-width="0" stroke="none" stroke-dasharray="none" stroke-dashoffset="none" fill="rgb(122, 122, 122)" fill-rule="evenOdd"></path>
  Sorry, your browser does not support inline SVG.
</svg>