<svg preserveAspectRatio="none"  width="24"  height="24"  viewBox="0 0 24 24" xmlns="http://www.w3.org/2000/svg">
  <path d="M11.999999999999998 5.845018450184503C8.595906711089954 5.845018450184503 5.854355069014754 8.587549101297464 5.854355069014754 12.004285204142363 5.854355069014754 15.421021306987264 8.595906711089954 18.152124747053918 11.999999999999998 18.152124747053918 15.40409328891004 18.152124747053918 18.15706806282722 15.40959409594096 18.15706806282722 12.004285204142363 18.15706806282722 8.598976312343767 15.41551642075202 5.845018450184503 11.999999999999998 5.845018450184503 11.999999999999998 5.845018450184503 11.999999999999998 5.845018450184503 11.999999999999998 5.845018450184503M11.999999999999998 16.003809070348765C9.806758686339837 16.003809070348765 8.001903855306995 14.209736936079036 8.001903855306995 12.004285204142363 8.001903855306995 9.79883347220569 9.795335554497857 7.993334126889656 11.999999999999998 7.993334126889656 14.20466444550214 7.993334126889656 16.00951927653498 9.787406261159385 16.00951927653498 12.004285204142363 16.00951927653498 14.221164147125341 14.20466444550214 16.003809070348765 11.999999999999998 16.003809070348765 11.999999999999998 16.003809070348765 11.999999999999998 16.003809070348765 11.999999999999998 16.003809070348765M19.847691575440265 5.593619807165813C19.847691575440265 6.393524580407095 19.196573060447403 7.033448399000119 18.408376963350783 7.033448399000119 17.608757734412183 7.033448399000119 16.9690623512613 6.38209736936079 16.9690623512613 5.593619807165813 16.9690623512613 4.805142244970836 17.620180866254163 4.153791215331508 18.408376963350783 4.153791215331508 19.1965730604474 4.153791215331508 19.847691575440265 4.805142244970837 19.847691575440265 5.593619807165813 19.847691575440265 5.593619807165813 19.847691575440265 5.593619807165813 19.847691575440265 5.593619807165813M23.914326511185145 7.0448756100464225C23.822941456449307 5.125104154267349 23.388862446454063 3.4224497083680516 21.983817229890523 2.0169027496726573 20.578772013326986 0.6113557909772644 18.876725368871963 0.177121771217712 16.95763921941932 0.08570408284728015 14.9700142789148-0.02856802761576005 9.029985721085197-0.02856802761576005 7.053783912422655 0.08570408284728015 5.1346977629700135 0.177121771217712 3.4326511185149924 0.6113557909772644 2.027605901951451 2.0169027496726573 0.6225606853879104 3.4224497083680516 0.17705854355069012 5.125104154267349 0.08567348881485007 7.0448756100464225-0.02855782960495002 9.021783121057016-0.02855782960495002 14.963932865135103 0.08567348881485007 16.952267587191997 0.17705854355069012 18.872039042971075 0.6111375535459305 20.57469348887037 2.027605901951451 21.980240447565766 3.444074250356972 23.38578740626116 5.1346977629700135 23.82002142602071 7.053783912422655 23.922866325437447 9.029985721085197 24.02571122485418 14.9700142789148 24.02571122485418 16.95763921941932 23.922866325437447 18.876725368871963 23.831448637067016 20.578772013326986 23.38578740626116 21.983817229890523 21.980240447565766 23.388862446454063 20.57469348887037 23.822941456449307 18.872039042971075 23.914326511185145 16.952267587191997 24.028557829604946 14.963932865135103 24.028557829604946 9.033210332103321 23.914326511185145 7.0448756100464225 23.914326511185145 7.0448756100464225 23.914326511185145 7.0448756100464225 23.914326511185145 7.0448756100464225M21.355544978581626 19.077728841804547C20.94431223227034 20.129032258064512 20.133269871489766 20.928937031305793 19.0823417420276 21.351743840019044 17.494526415992382 21.980240447565766 13.74773917182294 21.843113915010115 11.999999999999998 21.843113915010115 10.252260828177057 21.843113915010115 6.505473584007615 21.980240447565766 4.929081389814373 21.351743840019044 3.8781532603522124 20.9403642423521 3.078534031413612 20.129032258064512 2.6558781532603515 19.077728841804547 2.027605901951451 17.48934650636829 2.164683484055211 13.741221283180572 2.164683484055211 12.004285204142363 2.164683484055211 10.267349125104154 2.027605901951451 6.496369479823831 2.6558781532603515 4.919414355433877 3.0671108995716323 3.868110939173908 3.8781532603522124 3.0682061659326267 4.929081389814373 2.645399357219379 6.516896715849595 2.0169027496726573 10.263683960019037 2.154029282228306 11.999999999999998 2.154029282228306 13.73631603998096 2.154029282228306 17.505949547834362 2.0169027496726573 19.0823417420276 2.645399357219379 20.133269871489766 3.0567789548863233 20.932889100428365 3.868110939173908 21.355544978581626 4.919414355433877 21.983817229890523 6.507796690870134 21.846739647786766 10.25592191405785 21.846739647786766 12.004285204142363 21.846739647786766 13.752648494226875 21.983817229890523 17.500773717414592 21.355544978581626 19.077728841804547 21.355544978581626 19.077728841804547 21.355544978581626 19.077728841804547 21.355544978581626 19.077728841804547" stroke-width="0" stroke="none" stroke-dasharray="none" stroke-dashoffset="none" fill="rgb(122, 122, 122)" fill-rule="evenOdd"></path>
  Sorry, your browser does not support inline SVG.
</svg>